<svg xmlns="http://www.w3.org/2000/svg" xmlns:xlink="http://www.w3.org/1999/xlink" width="1080" zoomAndPan="magnify" viewBox="0 0 810 1012.49997" height="1350" preserveAspectRatio="xMidYMid meet" version="1.0"><defs><clipPath id="964557cab7"><path d="M 18.796875 124.710938 L 790.914062 124.710938 L 790.914062 887.085938 L 18.796875 887.085938 Z M 18.796875 124.710938 " clip-rule="nonzero"/></clipPath></defs><path fill="#f2eddb" d="M 289.390625 879.589844 C 241.960938 879.589844 196.523438 856.34375 167.835938 817.414062 C 147.714844 790.097656 136.238281 757.234375 134.648438 722.386719 C 134.332031 715.507812 134.691406 707.425781 136.480469 698.667969 C 109.199219 691.621094 84.804688 675.617188 66.9375 652.449219 C 41.789062 619.847656 27.371094 578.261719 26.324219 535.351562 C 25.675781 508.648438 29.703125 479.199219 37.664062 452.425781 C 47.878906 418.054688 63.515625 390.507812 84.144531 370.550781 C 102.917969 352.394531 127.117188 342.390625 152.304688 342.390625 C 154.480469 342.390625 156.648438 342.460938 158.816406 342.621094 C 159.253906 332.046875 160.484375 321.523438 162.507812 311.152344 C 168.34375 281.324219 180.175781 249.839844 195.828125 222.511719 C 215.539062 188.089844 240.617188 161.613281 268.347656 145.949219 C 283.949219 137.128906 301.40625 132.46875 318.824219 132.46875 C 345.519531 132.46875 370.886719 143.167969 390.246094 162.585938 C 395.503906 167.851562 400.398438 173.609375 404.945312 179.839844 C 409.488281 173.609375 414.386719 167.851562 419.644531 162.585938 C 439.042969 143.140625 464.414062 132.433594 491.074219 132.433594 C 506.878906 132.433594 522.21875 136.121094 536.667969 143.394531 C 564.382812 157.347656 588.855469 181.332031 609.398438 214.695312 C 624.570312 239.328125 636.910156 268.277344 644.140625 296.21875 C 648.082031 311.433594 650.363281 326.9375 651.011719 342.402344 C 653.230469 342.242188 655.460938 342.164062 657.691406 342.164062 C 702.023438 342.164062 741.492188 374.054688 763.28125 427.460938 C 777.9375 463.386719 784.949219 501.261719 783.5625 536.976562 C 781.894531 579.921875 768.019531 619.621094 743.441406 651.800781 C 725.171875 675.710938 700.96875 691.796875 673.421875 698.765625 C 675.152344 707.355469 675.519531 715.289062 675.25 722.046875 C 674.054688 751.6875 665.5625 779.8125 649.992188 805.65625 C 622.289062 851.640625 573.542969 879.089844 519.601562 879.089844 C 499.769531 879.089844 480.246094 875.351562 461.578125 867.988281 C 436.859375 858.230469 418.773438 853.875 402.953125 853.875 C 393.632812 853.875 384.613281 855.402344 375.378906 858.535156 L 336.207031 871.847656 C 321.097656 876.980469 305.34375 879.589844 289.390625 879.589844 Z M 289.390625 879.589844 " fill-opacity="1" fill-rule="nonzero"/><g clip-path="url(#964557cab7)"><path fill="#b76e22" d="M 289.390625 887.046875 C 239.601562 887.046875 191.914062 862.667969 161.832031 821.839844 C 140.824219 793.328125 128.855469 759.058594 127.207031 722.722656 C 126.917969 716.449219 127.199219 710.183594 128.03125 704.003906 C 101.496094 695.710938 78.441406 679.554688 61.042969 657.003906 C 34.917969 623.15625 19.945312 580.019531 18.867188 535.527344 C 18.199219 508.070312 22.332031 477.796875 30.511719 450.292969 C 41.09375 414.683594 57.390625 386.039062 78.953125 365.183594 C 98.996094 345.789062 124.835938 335.054688 151.777344 334.925781 C 152.417969 326.4375 153.550781 317.988281 155.171875 309.703125 C 161.160156 279.097656 173.292969 246.8125 189.335938 218.792969 C 209.710938 183.207031 235.765625 155.769531 264.664062 139.4375 C 281.386719 129.996094 300.113281 125.003906 318.804688 125.003906 C 347.5 125.003906 374.738281 136.480469 395.511719 157.3125 C 398.765625 160.578125 401.90625 164.042969 404.925781 167.683594 C 407.945312 164.042969 411.085938 160.578125 414.351562 157.3125 C 435.167969 136.464844 462.414062 124.976562 491.066406 124.976562 C 508.042969 124.976562 524.515625 128.933594 540.011719 136.734375 C 568.980469 151.320312 594.464844 176.234375 615.742188 210.789062 C 631.292969 236.035156 643.9375 265.714844 651.355469 294.355469 C 654.777344 307.570312 657.015625 321.113281 658.023438 334.714844 C 705.355469 334.871094 747.257812 368.472656 770.179688 424.652344 C 785.230469 461.550781 792.433594 500.496094 791.011719 537.273438 C 789.285156 581.765625 774.882812 622.9375 749.363281 656.335938 C 731.664062 679.503906 708.4375 695.921875 681.875 704.144531 C 682.671875 710.148438 682.945312 716.246094 682.707031 722.351562 C 681.460938 753.257812 672.609375 782.585938 656.390625 809.507812 C 627.328125 857.753906 576.195312 886.554688 519.609375 886.554688 C 498.832031 886.554688 478.382812 882.640625 458.851562 874.929688 C 435.042969 865.53125 417.800781 861.335938 402.960938 861.335938 C 394.464844 861.335938 386.234375 862.730469 377.785156 865.601562 L 338.613281 878.914062 C 322.730469 884.308594 306.167969 887.046875 289.390625 887.046875 Z M 152.296875 349.84375 C 129.058594 349.84375 106.699219 359.101562 89.332031 375.90625 C 69.640625 394.957031 54.660156 421.421875 44.816406 454.539062 C 37.074219 480.585938 33.160156 509.21875 33.785156 535.160156 C 34.785156 576.5 48.660156 616.53125 72.84375 647.886719 C 89.632812 669.640625 112.28125 684.707031 138.351562 691.4375 C 142.195312 692.429688 144.589844 696.253906 143.792969 700.152344 C 142.335938 707.304688 141.765625 714.664062 142.105469 722.046875 C 143.625 755.417969 154.59375 786.859375 173.847656 812.984375 C 201.128906 850.015625 244.332031 872.128906 289.398438 872.128906 C 304.539062 872.128906 319.480469 869.664062 333.820312 864.792969 L 372.992188 851.480469 C 383.015625 848.078125 392.816406 846.417969 402.96875 846.417969 C 419.773438 846.417969 438.703125 850.929688 464.335938 861.046875 C 482.121094 868.066406 500.71875 871.628906 519.609375 871.628906 C 570.917969 871.628906 617.28125 845.523438 643.613281 801.804688 C 658.523438 777.050781 666.667969 750.109375 667.808594 721.746094 C 668.097656 714.492188 667.535156 707.257812 666.121094 700.238281 C 665.339844 696.34375 667.746094 692.515625 671.605469 691.535156 C 697.632812 684.945312 720.433594 669.640625 737.527344 647.273438 C 761.167969 616.332031 774.515625 578.085938 776.121094 536.695312 C 777.464844 502.023438 770.644531 465.230469 756.386719 430.277344 C 735.78125 379.773438 698.890625 349.625 657.699219 349.625 C 655.652344 349.625 653.582031 349.695312 651.554688 349.84375 C 649.546875 349.992188 647.5625 349.308594 646.054688 347.964844 C 644.554688 346.621094 643.648438 344.726562 643.570312 342.707031 C 642.9375 327.675781 640.699219 312.660156 636.925781 298.078125 C 629.878906 270.839844 617.851562 242.609375 603.054688 218.601562 C 583.25 186.429688 559.785156 163.367188 533.316406 150.054688 C 519.917969 143.308594 505.703125 139.894531 491.074219 139.894531 C 466.40625 139.894531 442.914062 149.828125 424.917969 167.859375 C 419.957031 172.828125 415.265625 178.339844 410.964844 184.234375 C 409.558594 186.15625 407.320312 187.296875 404.933594 187.296875 C 402.546875 187.296875 400.3125 186.15625 398.90625 184.234375 C 394.605469 178.339844 389.910156 172.828125 384.953125 167.851562 C 367 149.84375 343.507812 139.921875 318.816406 139.921875 C 302.6875 139.921875 286.503906 144.246094 272.007812 152.433594 C 245.445312 167.441406 221.332031 192.957031 202.289062 226.214844 C 187.035156 252.859375 175.503906 283.527344 169.820312 312.574219 C 167.871094 322.507812 166.679688 332.722656 166.257812 342.917969 C 166.175781 344.929688 165.28125 346.824219 163.78125 348.167969 C 162.28125 349.507812 160.296875 350.183594 158.289062 350.054688 C 156.304688 349.914062 154.289062 349.84375 152.285156 349.84375 Z M 152.296875 349.84375 " fill-opacity="1" fill-rule="nonzero"/></g><path fill="#b76e22" d="M 505.097656 457.691406 C 476.578125 456.953125 452.410156 444.019531 439.027344 419.167969 C 431.394531 404.988281 426.304688 389.761719 424.453125 373.097656 C 418.898438 322.9375 424.609375 242.074219 461.871094 204.742188 C 475.121094 191.464844 493.40625 188.429688 509.835938 196.707031 C 548.296875 216.0625 575.867188 270.628906 586.363281 311.179688 C 595.035156 344.675781 593.023438 379.835938 579.582031 411.226562 C 566.460938 441.878906 538.425781 458.550781 505.085938 457.691406 Z M 347.976562 204.71875 C 334.03125 190.730469 314.613281 188.34375 297.691406 197.898438 C 257.640625 220.53125 229.710938 278.410156 221.066406 322.605469 C 215.503906 351.035156 218.476562 379.785156 228.203125 406.3125 C 241.082031 441.464844 272.929688 460.558594 309.835938 457.488281 C 356.988281 453.566406 380.550781 416.746094 385.429688 373.210938 C 391.0625 322.992188 385.296875 242.160156 347.984375 204.726562 Z M 172.699219 408.058594 C 156.917969 398.449219 139 400.503906 125.628906 413.4375 C 97.378906 440.773438 85.042969 495.25 85.972656 533.902344 C 86.691406 563.757812 96.28125 592.804688 114.175781 615.996094 C 132.3125 639.503906 159.789062 647.605469 187.667969 640.648438 C 244.726562 626.402344 249.640625 571.171875 237.496094 522.011719 C 227.875 483.058594 208.210938 429.6875 172.6875 408.050781 Z M 598.878906 774.875 C 609.03125 758.015625 614.832031 739.296875 615.621094 719.660156 C 616.65625 693.964844 593.824219 681.335938 573.9375 668.5 C 510.28125 627.371094 514.835938 585.519531 461.21875 542.300781 C 427.875 515.421875 384.515625 514.625 350.554688 540.871094 C 295.921875 583.105469 299.710938 628.210938 234.792969 669.234375 C 215.390625 681.496094 193.136719 694.914062 194.257812 719.683594 C 195.277344 742.113281 202.480469 763.84375 215.871094 782.023438 C 239.25 813.757812 279.964844 827.945312 317.007812 815.363281 L 356.179688 802.050781 C 401.109375 786.78125 441.0625 795.75 483.484375 812.492188 C 526.421875 829.4375 574.859375 814.730469 598.867188 774.875 Z M 708.023438 450.003906 C 696.949219 422.851562 672.414062 388.859375 639.402344 406.890625 C 602.921875 426.820312 582.460938 482.105469 572.710938 520.644531 C 560.273438 569.828125 564.644531 626.578125 622.140625 640.648438 C 650.011719 647.464844 677.488281 639.832031 696.019531 615.574219 C 732.78125 567.46875 729.691406 503.121094 708.023438 450.003906 Z M 708.023438 450.003906 " fill-opacity="1" fill-rule="nonzero"/></svg>